<svg id="checked_1_" data-name="checked (1)" xmlns="http://www.w3.org/2000/svg" width="97.88" height="97.88" viewBox="0 0 97.88 97.88">
  <circle id="Ellipse_1202" data-name="Ellipse 1202" cx="48.94" cy="48.94" r="48.94" fill="#3db39e"/>
  <path id="Path_1269" data-name="Path 1269" d="M283.528,114.609,240.246,159.42l.076,4.818h1.988l46.876-37.776A49.768,49.768,0,0,0,283.528,114.609Z" transform="translate(-193.6 -92.356)" fill="#37a18e"/>
  <path id="Path_1270" data-name="Path 1270" d="M173.054,64.465,164.413,55.9a3.094,3.094,0,0,0-4.282,0L123.2,94.058,107.214,78.306a3.094,3.094,0,0,0-4.282,0l-7.647,7.57a3,3,0,0,0,0,4.206l25.541,25.311a4.206,4.206,0,0,0,5.047,0l47.181-46.646A3.094,3.094,0,0,0,173.054,64.465Z" transform="translate(-76.091 -44.353)" fill="#f2f1ef"/>
  <path id="Path_1271" data-name="Path 1271" d="M126.19,149.432l47.182-46.646a3,3,0,0,0,0-4.206l-1.376-1.3L123.59,144.844,96.825,118.768l-1.147,1.147a3,3,0,0,0,0,4.206l25.541,25.311a3.1,3.1,0,0,0,2.523.841A3.031,3.031,0,0,0,126.19,149.432Z" transform="translate(-76.408 -78.392)" fill="#e6e5e3"/>
</svg>
