<svg id="waiting" xmlns="http://www.w3.org/2000/svg" width="42" height="42" viewBox="0 0 42 42">
  <g id="Group_2758" data-name="Group 2758" transform="translate(19.77)">
    <g id="Group_2757" data-name="Group 2757">
      <path id="Path_1253" data-name="Path 1253" d="M242.231,0A1.231,1.231,0,0,0,241,1.23V9.138a1.23,1.23,0,0,0,2.461,0V1.23A1.23,1.23,0,0,0,242.231,0Z" transform="translate(-241.001)"/>
    </g>
  </g>
  <g id="Group_2760" data-name="Group 2760" transform="translate(19.77 31.631)">
    <g id="Group_2759" data-name="Group 2759">
      <path id="Path_1254" data-name="Path 1254" d="M242.231,385.6a1.23,1.23,0,0,0-1.23,1.23v7.908a1.23,1.23,0,0,0,2.461,0v-7.908A1.23,1.23,0,0,0,242.231,385.6Z" transform="translate(-241.001 -385.601)"/>
    </g>
  </g>
  <g id="Group_2762" data-name="Group 2762" transform="translate(9.885 2.648)">
    <g id="Group_2761" data-name="Group 2761">
      <path id="Path_1255" data-name="Path 1255" d="M126.749,39.748,122.8,32.9a1.23,1.23,0,0,0-2.131,1.23l3.954,6.848a1.23,1.23,0,0,0,2.131-1.23Z" transform="translate(-120.499 -32.284)"/>
    </g>
  </g>
  <g id="Group_2764" data-name="Group 2764" transform="translate(25.7 30.042)">
    <g id="Group_2763" data-name="Group 2763">
      <path id="Path_1256" data-name="Path 1256" d="M319.55,373.69l-3.954-6.848a1.23,1.23,0,1,0-2.131,1.23l3.954,6.848a1.23,1.23,0,0,0,2.131-1.23Z" transform="translate(-313.3 -366.226)"/>
    </g>
  </g>
  <g id="Group_2766" data-name="Group 2766" transform="translate(2.648 9.885)">
    <g id="Group_2765" data-name="Group 2765">
      <path id="Path_1257" data-name="Path 1257" d="M40.98,124.616l-6.848-3.954a1.23,1.23,0,0,0-1.23,2.131l6.848,3.954a1.23,1.23,0,0,0,1.23-2.131Z" transform="translate(-32.286 -120.497)"/>
    </g>
  </g>
  <g id="Group_2768" data-name="Group 2768" transform="translate(30.042 25.7)">
    <g id="Group_2767" data-name="Group 2767">
      <path id="Path_1258" data-name="Path 1258" d="M374.921,317.418l-6.848-3.954a1.23,1.23,0,0,0-1.23,2.131l6.848,3.954a1.23,1.23,0,0,0,1.23-2.131Z" transform="translate(-366.227 -313.299)"/>
    </g>
  </g>
  <g id="Group_2770" data-name="Group 2770" transform="translate(0 19.77)">
    <g id="Group_2769" data-name="Group 2769">
      <path id="Path_1259" data-name="Path 1259" d="M9.138,241H1.23a1.23,1.23,0,0,0,0,2.461H9.138a1.23,1.23,0,0,0,0-2.461Z" transform="translate(0 -241.002)"/>
    </g>
  </g>
  <g id="Group_2772" data-name="Group 2772" transform="translate(31.631 19.77)">
    <g id="Group_2771" data-name="Group 2771">
      <path id="Path_1260" data-name="Path 1260" d="M394.74,241h-7.908a1.23,1.23,0,1,0,0,2.461h7.908a1.23,1.23,0,0,0,0-2.461Z" transform="translate(-385.602 -241.002)"/>
    </g>
  </g>
  <g id="Group_2774" data-name="Group 2774" transform="translate(2.649 25.7)">
    <g id="Group_2773" data-name="Group 2773">
      <path id="Path_1261" data-name="Path 1261" d="M41.432,313.915a1.23,1.23,0,0,0-1.681-.45L32.9,317.418a1.23,1.23,0,1,0,1.23,2.131l6.848-3.954A1.23,1.23,0,0,0,41.432,313.915Z" transform="translate(-32.287 -313.299)"/>
    </g>
  </g>
  <g id="Group_2776" data-name="Group 2776" transform="translate(30.042 9.885)">
    <g id="Group_2775" data-name="Group 2775">
      <path id="Path_1262" data-name="Path 1262" d="M375.37,121.116a1.23,1.23,0,0,0-1.681-.45l-6.848,3.954a1.23,1.23,0,1,0,1.23,2.131l6.848-3.954A1.23,1.23,0,0,0,375.37,121.116Z" transform="translate(-366.226 -120.501)"/>
    </g>
  </g>
  <g id="Group_2778" data-name="Group 2778" transform="translate(9.885 30.042)">
    <g id="Group_2777" data-name="Group 2777">
      <path id="Path_1263" data-name="Path 1263" d="M126.3,366.391a1.23,1.23,0,0,0-1.681.45l-3.954,6.848a1.23,1.23,0,1,0,2.131,1.23l3.954-6.848A1.23,1.23,0,0,0,126.3,366.391Z" transform="translate(-120.499 -366.226)"/>
    </g>
  </g>
  <g id="Group_2780" data-name="Group 2780" transform="translate(25.7 2.649)">
    <g id="Group_2779" data-name="Group 2779">
      <path id="Path_1264" data-name="Path 1264" d="M319.1,32.452a1.23,1.23,0,0,0-1.681.45l-3.954,6.848a1.23,1.23,0,1,0,2.131,1.23l3.954-6.848A1.231,1.231,0,0,0,319.1,32.452Z" transform="translate(-313.299 -32.287)"/>
    </g>
  </g>
</svg>
